<?xml version="1.0" standalone="no"?>
<!DOCTYPE svg PUBLIC "-//W3C//DTD SVG 1.1//EN" "http://www.w3.org/Graphics/SVG/1.1/DTD/svg11.dtd" >
<svg xmlns="http://www.w3.org/2000/svg">
<metadata>
This is a custom SVG webfont generated by Font Squirrel.
Copyright   : Digitized data copyright The Monotype Corporation 19911995 All rights reserved Gill Sans is a trademark of The Monotype Corporation which may be registered in certain jurisdictions
Designer    : Eric Gill
Foundry     : Monotype Typography
Foundry URL : httpwwwmonotypecomhtmlmtnamemswelcomehtml
</metadata>
<defs>
<font id="GillSansAltOneWGLLightRegular" horiz-adv-x="1024" >
<font-face units-per-em="2048" ascent="1638" descent="-410" />
<missing-glyph horiz-adv-x="569" />
<glyph unicode=" "  horiz-adv-x="569" />
<glyph unicode="&#x09;" horiz-adv-x="569" />
<glyph unicode="&#xa0;" horiz-adv-x="569" />
<glyph unicode="!" horiz-adv-x="362" d="M115 0v199h133v-199h-133zM115 1397h133l-35 -1004h-63z" />
<glyph unicode="&#x22;" horiz-adv-x="569" d="M76 1178v223h135v-223l-25 -256h-86zM358 1178v223h136v-223l-25 -256h-86z" />
<glyph unicode="#" horiz-adv-x="1352" d="M158 397v94h190l80 391h-270v95h291l86 420h94l-86 -420h389l88 420h94l-88 -420h168v-95h-186l-82 -391h268v-94h-289l-86 -416h-94l86 416h-389l-86 -416h-94l86 416h-170zM442 491h389l82 391h-391z" />
<glyph unicode="$" horiz-adv-x="1067" d="M72 145v113q213 -159 411 -180v567q-401 120 -401 369q0 127 101.5 227t299.5 113v61h99v-61q198 -12 350 -125v-115q-171 129 -350 143v-534q409 -109 409 -383q0 -126 -103 -234t-306 -124v-222h-99v222q-242 17 -411 163zM186 1020q0 -185 297 -266v503 q-136 -4 -216.5 -76.5t-80.5 -160.5zM582 78q136 8 220.5 82t84.5 174q0 104 -74 167.5t-231 110.5v-534z" />
<glyph unicode="%" horiz-adv-x="1430" d="M39 1085q0 136 97 233t233 97q135 0 232 -97t97 -233q0 -135 -97 -232t-232 -97q-136 0 -233 96.5t-97 232.5zM94 -23l1127 1432h100l-1124 -1432h-103zM127 1085q0 -100 71 -170.5t171 -70.5q99 0 170 71t71 170q0 100 -71 171t-170 71t-170.5 -71.5t-71.5 -170.5z M731 305q0 136 97 233t233 97q135 0 232.5 -97t97.5 -233q0 -135 -97.5 -232.5t-232.5 -97.5q-136 0 -233 97t-97 233zM819 305q0 -100 71 -171t171 -71q99 0 170.5 71.5t71.5 170.5t-71.5 170.5t-170.5 71.5t-170.5 -72t-71.5 -170z" />
<glyph unicode="&#x26;" horiz-adv-x="1260" d="M53 313q0 275 346 426q-174 181 -174 326q0 128 96 216.5t236 88.5q132 0 218.5 -82.5t86.5 -206.5q0 -222 -293 -370l318 -330q95 142 153 315h115q-65 -204 -192 -395l284 -301h-137l-211 219q-205 -237 -481 -237q-164 0 -264.5 91.5t-100.5 239.5zM170 328 q0 -116 71.5 -181t198.5 -65q210 0 385 213l-354 369q-156 -67 -228.5 -145t-72.5 -191zM330 1071q0 -130 170 -285q262 109 262 285q0 85 -60 142t-151 57q-94 0 -157.5 -57.5t-63.5 -141.5z" />
<glyph unicode="'" horiz-adv-x="455" d="M160 1178v223h135v-223l-25 -256h-86z" />
<glyph unicode="(" horiz-adv-x="682" d="M164 473q0 540 399 942h103q-192 -175 -295 -427.5t-103 -514.5q0 -261 104 -514.5t296 -429.5h-103q-401 404 -401 944z" />
<glyph unicode=")" horiz-adv-x="682" d="M14 -471q192 176 296 429.5t104 514.5t-104 513.5t-296 428.5h103q401 -404 401 -942q0 -540 -401 -944h-103z" />
<glyph unicode="*" horiz-adv-x="961" d="M66 954v95l372 -37l2 12l-286 231l71 72l234 -285l10 5l-37 368h94l-34 -366l10 -7l237 285l70 -72l-287 -231l4 -10l369 33v-97l-369 41l-6 -12l289 -234l-70 -69l-237 289l-10 -2l34 -379h-94l37 379l-8 2l-236 -289l-71 69l290 234l-4 10z" />
<glyph unicode="+" horiz-adv-x="1352" d="M139 674v90h492v491h90v-491h491v-90h-491v-492h-90v492h-492z" />
<glyph unicode="," horiz-adv-x="362" d="M115 0v199h133v-156q0 -182 -133 -283v72q43 60 43 168h-43z" />
<glyph unicode="-" horiz-adv-x="641" d="M78 414v96h485v-96h-485z" />
<glyph unicode="." horiz-adv-x="362" d="M115 0v199h133v-199h-133z" />
<glyph unicode="/" horiz-adv-x="575" d="M6 -18l451 1433h94l-449 -1433h-96z" />
<glyph unicode="0" d="M66 674q0 387 135.5 564t310.5 177q188 0 317 -188.5t129 -534.5q0 -322 -126.5 -516t-315.5 -194q-198 0 -324 190.5t-126 501.5zM170 698q0 -277 94.5 -447.5t243.5 -170.5q156 0 251 176t95 446q0 264 -92.5 439.5t-249.5 175.5q-148 0 -245 -172.5t-97 -446.5z" />
<glyph unicode="1" d="M106 1026l474 389h45v-1415h-109v1251l-364 -305z" />
<glyph unicode="2" d="M76 0q647 623 647 1012q0 129 -90 217t-223 88q-88 0 -158 -36t-160 -116v123q155 127 326 127t290 -116.5t119 -284.5q0 -333 -514 -918h650v-96h-887z" />
<glyph unicode="3" d="M139 51v96q144 -67 310 -67q145 0 235 82t90 215q0 143 -95 227q-93 82 -253 82h-12v98q154 0 249 79.5t95 191.5q0 111 -91.5 186.5t-228.5 75.5q-150 0 -286 -92v100q122 90 294 90q183 0 299.5 -99t116.5 -253q0 -110 -65 -196t-189 -124v-4q271 -91 271 -356 q0 -185 -123.5 -293t-294.5 -108q-174 0 -322 69z" />
<glyph unicode="4" d="M29 539v34l702 842h39v-792h195v-84h-195v-539h-104v539h-637zM174 623h492v589z" />
<glyph unicode="5" d="M84 74v119q195 -113 340 -113q150 0 247 98t97 248q0 164 -103 256.5t-274 92.5q-93 0 -192 -30v652h592v-97h-494v-442q57 9 112 9q209 0 336 -117.5t127 -315.5q0 -194 -129 -323t-323 -129q-162 0 -336 92z" />
<glyph unicode="6" d="M125 473q0 512 582 942l61 -74q-448 -317 -520 -694q147 109 309 109q167 0 279 -109.5t112 -271.5q0 -171 -112 -282t-285 -111q-194 0 -310 133.5t-116 357.5zM225 455q0 -170 90 -272.5t230 -102.5q127 0 213 80.5t86 199.5q0 126 -87 211.5t-214 85.5 q-164 0 -314 -131q-4 -36 -4 -71z" />
<glyph unicode="7" d="M59 1300v97h914l-639 -1415l-90 38l577 1280h-762z" />
<glyph unicode="8" d="M115 373q0 228 209 354q-183 124 -183 315q0 151 110 262t259 111q153 0 263 -109.5t110 -261.5q0 -197 -178 -317q206 -124 206 -346q0 -168 -114.5 -283.5t-280.5 -115.5q-168 0 -284.5 114t-116.5 277zM219 377q0 -123 86 -210t211 -87q127 0 209 87t82 220 q0 119 -86.5 203t-210.5 84q-121 0 -206 -87.5t-85 -209.5zM246 1044q0 -114 77.5 -193t190.5 -79q114 0 189 79t75 198q0 111 -78 189.5t-190 78.5q-110 0 -187 -79.5t-77 -193.5z" />
<glyph unicode="9" d="M66 1026q0 170 110.5 279.5t282.5 109.5q199 0 314.5 -131t115.5 -358q0 -521 -594 -944l-57 75q462 333 524 691q-163 -105 -307 -105q-165 0 -277 110.5t-112 272.5zM170 1032q0 -124 82.5 -207.5t206.5 -83.5q176 0 321 131q3 32 3 62q0 180 -83.5 281.5t-234.5 101.5 q-124 0 -209.5 -81.5t-85.5 -203.5z" />
<glyph unicode=":" horiz-adv-x="362" d="M115 0v199h133v-199h-133zM115 721v199h133v-199h-133z" />
<glyph unicode=";" horiz-adv-x="362" d="M115 0v199h133v-156q0 -182 -133 -283v72q43 60 43 168h-43zM115 721v199h133v-199h-133z" />
<glyph unicode="&#x3c;" horiz-adv-x="1352" d="M139 674v86l1073 450v-100l-950 -393l950 -393v-101z" />
<glyph unicode="=" horiz-adv-x="1352" d="M139 426v90h1073v-90h-1073zM139 920v90h1073v-90h-1073z" />
<glyph unicode="&#x3e;" horiz-adv-x="1352" d="M139 223v101l951 393l-951 393v100l1073 -450v-86z" />
<glyph unicode="?" horiz-adv-x="575" d="M51 1219l47 159q72 37 140 37q114 0 185 -80t71 -211q0 -72 -26.5 -153.5t-113.5 -205.5t-106 -175t-19 -94q0 -63 39 -129l-37 -29q-79 91 -79 188q0 47 18.5 103t96.5 181.5t100 195t22 129.5q0 80 -45 136t-108 56q-99 0 -164 -108h-21zM174 0v199h133v-199h-133z" />
<glyph unicode="@" horiz-adv-x="1638" d="M-4 535q0 373 233.5 626.5t640.5 253.5q348 0 544 -209.5t196 -517.5q0 -281 -167.5 -474.5t-348.5 -193.5q-121 0 -121 112q0 30 8 69l-4 4q-154 -185 -338 -185q-148 0 -247 120t-99 302q0 245 151 431t363 186q207 0 299 -193h4l33 168h125l-170 -803q-12 -52 -12 -75 q0 -45 49 -45q120 0 255.5 164.5t135.5 412.5q0 276 -171 460.5t-497 184.5q-340 0 -559 -225t-219 -576q0 -346 218 -561t570 -215q439 0 672 312h102q-113 -191 -320 -292.5t-456 -101.5q-389 0 -629.5 238t-240.5 623zM420 436q0 -138 73 -228.5t183 -90.5 q156 0 270.5 189.5t114.5 381.5q0 123 -72.5 203t-183.5 80q-170 0 -277.5 -172t-107.5 -363z" />
<glyph unicode="A" horiz-adv-x="1366" d="M8 0l645 1407h60l645 -1407h-113l-221 483h-682l-221 -483h-113zM383 573h600l-301 658z" />
<glyph unicode="B" horiz-adv-x="1087" d="M164 0v1397h291q229 0 347 -96t118 -265q0 -202 -201 -311q323 -70 323 -354q0 -170 -126.5 -270.5t-342.5 -100.5h-409zM272 90h289q179 0 272 77t93 206q0 286 -412 286h-242v-569zM272 750h150q381 0 381 278q0 279 -385 279h-146v-557z" />
<glyph unicode="C" horiz-adv-x="1386" d="M100 696q0 307 217 513t517 206q236 0 491 -117v-118q-254 135 -498 135q-260 0 -435 -177t-175 -442q0 -268 176 -441t449 -173q228 0 497 143v-112q-248 -131 -495 -131q-319 0 -531.5 204.5t-212.5 509.5z" />
<glyph unicode="D" horiz-adv-x="1516" d="M162 0v1397h489q371 0 566.5 -195t195.5 -504q0 -303 -193.5 -500.5t-549.5 -197.5h-508zM270 1307v-1217h394q271 0 451.5 166.5t180.5 441.5q0 269 -178 439t-461 170h-387z" />
<glyph unicode="E" horiz-adv-x="1004" d="M164 0v1397h762v-90h-654v-559h637v-91h-637v-567h670v-90h-778z" />
<glyph unicode="F" horiz-adv-x="897" d="M160 0v1397h719v-90h-611v-531h551v-90h-551v-686h-108z" />
<glyph unicode="G" horiz-adv-x="1473" d="M102 702q0 306 213.5 509.5t536.5 203.5q220 0 479 -119v-122q-248 141 -495 141q-265 0 -441 -176t-176 -441t174 -440.5t473 -175.5q216 0 383 86v377h-295v90h404v-535q-247 -118 -496 -118q-325 0 -542.5 206t-217.5 514z" />
<glyph unicode="H" horiz-adv-x="1473" d="M162 0v1397h108v-645h932v645h109v-1397h-109v662h-932v-662h-108z" />
<glyph unicode="I" horiz-adv-x="426" d="M160 0v1397h108v-1397h-108z" />
<glyph unicode="J" horiz-adv-x="426" d="M-92 -301q34 -8 64 -8q196 0 196 280v1426h108v-1397q0 -231 -87 -319t-206 -88q-28 0 -65 4z" />
<glyph unicode="K" horiz-adv-x="1087" d="M156 0v1397h108v-695l670 695h135l-668 -697l732 -700h-138l-731 698v-698h-108z" />
<glyph unicode="L" horiz-adv-x="961" d="M162 0v1397h108v-1307h691v-90h-799z" />
<glyph unicode="M" horiz-adv-x="1599" d="M158 0v1397h108l533 -649l532 649h109v-1397h-109v1239l-532 -653l-533 653v-1239h-108z" />
<glyph unicode="N" horiz-adv-x="1579" d="M160 0v1397h92l1059 -1221v1221h108v-1397h-90l-1061 1221v-1221h-108z" />
<glyph unicode="O" horiz-adv-x="1686" d="M104 698q0 300 214.5 508.5t523.5 208.5q310 0 525.5 -208.5t215.5 -508.5q0 -299 -215.5 -507.5t-525.5 -208.5q-309 0 -523.5 208.5t-214.5 507.5zM221 698q0 -259 181.5 -437.5t443.5 -178.5q261 0 440.5 178.5t179.5 437.5q0 260 -179.5 438.5t-440.5 178.5 q-262 0 -443.5 -178.5t-181.5 -438.5z" />
<glyph unicode="P" horiz-adv-x="1044" d="M160 0v1397h385q221 0 338.5 -99t117.5 -270q0 -173 -118.5 -274t-347.5 -101h-267v-653h-108zM268 743h260q175 0 266 74t91 209q0 129 -89 205t-255 76h-273v-564z" />
<glyph unicode="Q" horiz-adv-x="1686" d="M104 696q0 305 212.5 512t525.5 207q315 0 528 -205.5t213 -509.5q0 -250 -164.5 -460t-494.5 -258q241 -164 438 -164q68 0 137 51l23 -21l-121 -141q-365 45 -635 275q-298 27 -480 237t-182 477zM221 698q0 -255 180 -435.5t437 -180.5q259 0 443.5 180.5t184.5 435.5 q0 259 -180.5 438t-441.5 179q-259 0 -441 -180.5t-182 -436.5z" />
<glyph unicode="R" horiz-adv-x="1174" d="M162 0v1397h358q225 0 344 -97.5t119 -263.5q0 -242 -266 -340q69 -33 186 -213l316 -483h-127l-244 383q-122 192 -190 239.5t-199 47.5h-189v-670h-108zM270 760h232q177 0 270.5 71.5t93.5 202.5q0 129 -95 201t-273 72h-228v-547z" />
<glyph unicode="S" horiz-adv-x="961" d="M94 1044q0 154 118 262.5t284 108.5q163 0 323 -88v-119q-182 107 -313 107q-126 0 -210.5 -76.5t-84.5 -189.5q0 -81 50 -146t209 -125t232 -100t124 -116t51 -197q0 -161 -118 -272t-288 -111q-174 0 -358 122v127q203 -149 352 -149q124 0 209.5 80.5t85.5 197.5 q0 89 -53 160.5t-215 133.5t-231.5 100t-118 108.5t-48.5 181.5z" />
<glyph unicode="T" horiz-adv-x="1174" d="M8 1307v90h1157v-90h-524v-1307h-109v1307h-524z" />
<glyph unicode="U" horiz-adv-x="1430" d="M131 610v787h109v-783q0 -250 132.5 -391t342.5 -141q212 0 344.5 142.5t132.5 404.5v768h108v-762q0 -313 -163 -483t-422 -170q-258 0 -421 168t-163 460z" />
<glyph unicode="V" horiz-adv-x="1217" d="M6 1397h109l495 -1182l492 1182h108l-585 -1411h-31z" />
<glyph unicode="W" horiz-adv-x="2111" d="M-2 1397h111l462 -1159l469 1159h33l467 -1159l463 1159h111l-562 -1411h-26l-469 1179l-469 -1179h-29z" />
<glyph unicode="X" horiz-adv-x="1409" d="M0 0l633 715l-600 682h139l533 -602l530 602h139l-600 -682l635 -715h-139l-565 639l-566 -639h-139z" />
<glyph unicode="Y" horiz-adv-x="1194" d="M0 1397h131l467 -553l465 553h131l-543 -647v-750h-108v750z" />
<glyph unicode="Z" horiz-adv-x="1300" d="M18 31l1047 1276h-999v90h1167l10 -39l-1046 -1268h1054v-90h-1222z" />
<glyph unicode="[" horiz-adv-x="618" d="M141 -451v1848h463v-97h-364v-1654h364v-97h-463z" />
<glyph unicode="\" horiz-adv-x="575" d="M25 1415h96l448 -1433h-94z" />
<glyph unicode="]" horiz-adv-x="618" d="M14 -354h365v1654h-365v97h463v-1848h-463v97z" />
<glyph unicode="^" horiz-adv-x="1352" d="M227 879l449 536l448 -536l-65 -54l-383 461l-385 -461z" />
<glyph unicode="_" d="M-12 -154h1048v-102h-1048v102z" />
<glyph unicode="`" horiz-adv-x="682" d="M158 1386h166l213 -319h-68z" />
<glyph unicode="a" horiz-adv-x="874" d="M74 215q0 150 139 236.5t397 99.5v117q0 188 -204 188q-130 0 -281 -117v101q156 98 297 98q125 0 206 -61.5t81 -178.5v-573q0 -47 22 -47q28 0 131 82v-82q-127 -96 -186 -96q-34 0 -47 22.5t-19 91.5q-145 -114 -288 -114q-104 0 -176 68t-72 165zM172 215 q0 -64 52 -108t130 -44q126 0 256 119v287q-16 1 -32 1q-167 0 -281 -68q-125 -73 -125 -187z" />
<glyph unicode="b" horiz-adv-x="1044" d="M127 51v1346h98v-609q147 150 332 150q180 0 295 -125.5t115 -323.5q0 -230 -140.5 -368.5t-373.5 -138.5q-153 0 -326 69zM225 121q114 -43 226 -43q178 0 294.5 114.5t116.5 290.5q0 163 -90 268t-227 105q-164 0 -320 -178v-557z" />
<glyph unicode="c" horiz-adv-x="854" d="M86 446q0 217 125.5 354.5t320.5 137.5q107 0 244 -45v-109q-132 58 -239 58q-154 0 -250.5 -107t-96.5 -278q0 -174 96.5 -276.5t258.5 -102.5q118 0 248 53v-102q-138 -47 -256 -47q-202 0 -326.5 128t-124.5 336z" />
<glyph unicode="d" horiz-adv-x="1044" d="M84 461q0 205 132.5 341t332.5 136q127 0 272 -74v533h99v-1397h-99v72q-126 -90 -272 -90q-196 0 -330.5 138.5t-134.5 340.5zM188 467q0 -167 110 -278t275 -111q128 0 248 84v594q-132 86 -268 86q-159 0 -262 -105.5t-103 -269.5z" />
<glyph unicode="e" horiz-adv-x="981" d="M82 471q0 202 120 334.5t302 132.5q171 0 289 -119.5t118 -324.5h-725q-3 -24 -3 -48q0 -154 110 -261t260 -107q175 0 342 137v-111q-158 -122 -354 -122q-199 0 -329 138t-130 351zM199 573h596q-52 269 -291 269q-113 0 -195.5 -70.5t-109.5 -198.5z" />
<glyph unicode="f" horiz-adv-x="492" d="M23 840v80h170v151q0 159 92.5 251.5t226.5 92.5q73 0 168 -39v-92q-99 35 -166 35q-223 0 -223 -285v-114h178v-80h-178v-840h-98v840h-170z" />
<glyph unicode="g" horiz-adv-x="874" d="M37 -225q0 180 268 223v4q-149 35 -149 131q0 97 184 150v4q-121 36 -183.5 119.5t-62.5 185.5q0 145 101 236.5t290 91.5h369v-80h-209q127 -116 127 -244q0 -115 -49.5 -182t-118 -97.5t-182.5 -60t-143 -55.5t-29 -60q0 -40 37.5 -64t233 -35t263.5 -75t68 -170 q0 -125 -109 -196.5t-303 -71.5q-193 0 -298 67.5t-105 178.5zM131 -219q0 -170 315 -170q143 0 227.5 49t84.5 129q0 162 -293 162q-334 0 -334 -170zM188 598q0 -104 71 -177t173 -73q101 0 173.5 72.5t72.5 173.5t-72.5 172.5t-175.5 71.5q-102 0 -172 -70t-70 -170z" />
<glyph unicode="h" horiz-adv-x="1004" d="M127 0v1397h98v-637h4q115 178 303 178q156 0 249 -100t93 -275v-563h-98v524q0 318 -250 318q-179 0 -301 -197v-645h-98z" />
<glyph unicode="i" horiz-adv-x="385" d="M143 0v920h99v-920h-99zM143 1229v168h99v-168h-99z" />
<glyph unicode="j" horiz-adv-x="385" d="M-57 -387q105 2 150.5 69t45.5 218v1020h99v-1022q0 -173 -73 -271t-200 -98zM139 1229v168h99v-168h-99z" />
<glyph unicode="k" horiz-adv-x="874" d="M121 0v1397h98v-1397h-98zM233 483l508 437h129l-503 -437l581 -483h-135z" />
<glyph unicode="l" horiz-adv-x="385" d="M143 0v1397h99v-1397h-99z" />
<glyph unicode="m" horiz-adv-x="1579" d="M123 0v920h98v-162h4q112 180 293 180q211 0 297 -221q130 221 320 221q143 0 231 -102t88 -271v-565h-98v522q0 149 -63 234.5t-177 85.5q-85 0 -148 -51t-130 -164v-627h-99v524q0 153 -65.5 235.5t-175.5 82.5q-160 0 -277 -197v-645h-98z" />
<glyph unicode="n" horiz-adv-x="1004" d="M127 0v920h98v-160h4q115 178 303 178q156 0 249 -100t93 -277v-561h-98v524q0 318 -250 318q-183 0 -301 -197v-645h-98z" />
<glyph unicode="o" horiz-adv-x="1110" d="M86 459q0 205 134.5 342t334.5 137t333.5 -137t133.5 -342q0 -204 -133.5 -340.5t-333.5 -136.5t-334.5 136.5t-134.5 340.5zM190 459q0 -164 104.5 -272.5t260.5 -108.5q155 0 259 108.5t104 272.5q0 163 -104.5 273t-258.5 110q-156 0 -260.5 -109t-104.5 -274z" />
<glyph unicode="p" horiz-adv-x="1044" d="M129 -471v1391h98v-52q139 70 277 70q196 0 325 -135t129 -340q0 -202 -133 -341.5t-325 -139.5q-133 0 -273 69v-522h-98zM227 774v-627q125 -69 254 -69q165 0 267 104t102 273q0 168 -108 277.5t-273 109.5q-118 0 -242 -68z" />
<glyph unicode="q" horiz-adv-x="1044" d="M76 442q0 213 130 354.5t324 141.5q141 0 287 -82v64h98v-1391h-98v524q-154 -71 -301 -71q-193 0 -316.5 129t-123.5 331zM180 434q0 -164 98 -263t259 -99q141 0 280 80v608q-132 82 -266 82q-158 0 -264.5 -117t-106.5 -291z" />
<glyph unicode="r" horiz-adv-x="682" d="M129 0v920h98v-242h4q165 260 322 260q90 0 211 -109l-57 -92q-115 105 -185 105q-138 0 -295 -264v-578h-98z" />
<glyph unicode="s" horiz-adv-x="725" d="M84 66v96q163 -84 289 -84q85 0 139.5 45t54.5 115q0 48 -35.5 88.5t-192 102.5t-203 122.5t-46.5 134.5q0 105 86.5 178.5t210.5 73.5q113 0 246 -78v-106q-140 94 -252 94q-83 0 -140 -45t-57 -111q0 -47 34.5 -86.5t191 -99.5t204.5 -125t48 -145q0 -107 -87 -180.5 t-215 -73.5q-139 0 -276 84z" />
<glyph unicode="t" horiz-adv-x="618" d="M-39 840v80h248v219l67 86h31v-305h258v-80h-258v-547q0 -132 21.5 -173.5t115.5 -41.5q72 0 168 45v-94q-97 -47 -190 -47q-91 0 -152 52t-61 144v662h-248z" />
<glyph unicode="u" horiz-adv-x="1004" d="M127 350v570h98v-568q0 -128 70 -201t182 -73q96 0 163.5 44t135.5 152v646h98v-920h-98v152h-4q-64 -92 -131.5 -131t-171.5 -39q-148 0 -245 96t-97 272z" />
<glyph unicode="v" horiz-adv-x="874" d="M0 920h100l346 -775l332 775h96l-395 -938h-61z" />
<glyph unicode="w" horiz-adv-x="1450" d="M0 920h96l314 -750l288 750h54l280 -750l320 750h98l-397 -938h-47l-283 747l-285 -747h-45z" />
<glyph unicode="x" horiz-adv-x="981" d="M12 0l420 471l-420 449h127l361 -381l360 381h127l-422 -449l422 -471h-127l-360 403l-361 -403h-127z" />
<glyph unicode="y" horiz-adv-x="854" d="M12 920h103l334 -644l317 644h100l-688 -1391h-100l321 649z" />
<glyph unicode="z" horiz-adv-x="811" d="M20 31l609 798h-570v91h721l8 -31l-604 -799h604v-90h-757z" />
<glyph unicode="{" horiz-adv-x="682" d="M100 397v131q103 2 148 76t45 260v199q0 351 293 334v-111q-119 0 -149.5 -50.5t-30.5 -172.5v-199q0 -330 -199 -401q199 -71 199 -402v-198q0 -122 30.5 -172.5t149.5 -50.5v-111q-293 -17 -293 334v198q0 187 -45 261t-148 75z" />
<glyph unicode="|" horiz-adv-x="455" d="M176 -471v1868h98v-1868h-98z" />
<glyph unicode="}" horiz-adv-x="682" d="M96 -360q119 0 149.5 50.5t30.5 172.5v198q0 331 199 402q-199 71 -199 401v199q0 122 -30.5 172.5t-149.5 50.5v111q14 1 26 1q267 0 267 -335v-199q0 -186 45 -260t148 -76v-131q-103 -1 -148 -75t-45 -261v-198q0 -335 -267 -335q-12 0 -26 1v111z" />
<glyph unicode="~" horiz-adv-x="1352" d="M137 707q166 120 287 120q79 0 261 -80.5t243 -80.5q63 0 126 33t158 102v-111q-165 -121 -280 -121q-82 0 -259 81t-247 81q-64 0 -121 -26.5t-168 -108.5v111z" />
<glyph unicode="&#xa1;" horiz-adv-x="362" d="M115 -453l35 1004h63l35 -1004h-133zM115 745v199h133v-199h-133z" />
<glyph unicode="&#xa2;" horiz-adv-x="854" d="M86 440q0 232 126.5 365t335.5 133q35 0 70 -4l134 373h88l-138 -389q44 -13 70 -25v-109q-56 29 -102 41l-256 -727q61 -20 133 -20q127 0 246 55v-96q-118 -56 -249 -56q-77 0 -163 19l-139 -387h-90l151 424q-217 126 -217 403zM190 455q0 -202 146 -318l254 705h-49 q-156 0 -253.5 -104.5t-97.5 -282.5z" />
<glyph unicode="&#xa3;" horiz-adv-x="1130" d="M193 -10l172 639h-172v96h198q190 690 549 690q50 0 98 -18l49 -97q-63 17 -110 17q-163 0 -280 -142.5t-205 -449.5h217v-96h-246l-137 -520q149 14 213 14q90 0 203.5 -21.5t156.5 -21.5q103 0 203 55v-108q-90 -45 -197 -45q-38 0 -169.5 21.5t-221.5 21.5 q-138 0 -321 -35z" />
<glyph unicode="&#xa4;" horiz-adv-x="1139" d="M96 293l129 129q-98 129 -98 278q0 154 98 277l-129 129l66 65l129 -129q127 99 276 99q150 0 279 -99l129 129l65 -65l-129 -129q99 -124 99 -277q0 -152 -99 -278l129 -129l-65 -66l-129 129q-124 -98 -279 -98q-154 0 -276 98l-129 -129zM225 700q0 -142 100 -243 t242 -101t243 101t101 243t-100.5 242t-243.5 100q-142 0 -242 -99.5t-100 -242.5z" />
<glyph unicode="&#xa5;" horiz-adv-x="1139" d="M4 1466h148l423 -725l418 725h142l-430 -725h366v-96h-434v-156h434v-96h-434v-393h-131v393h-438v96h438v156h-438v96h370z" />
<glyph unicode="&#xa6;" horiz-adv-x="455" d="M176 346h98v-817h-98v817zM176 713v684h98v-684h-98z" />
<glyph unicode="&#xa7;" horiz-adv-x="811" d="M53 571q0 156 172 326q-102 129 -102 248t81 194.5t210 75.5q111 0 186.5 -60.5t89.5 -164.5h-104q-31 135 -176 135q-78 0 -133.5 -51t-55.5 -123q0 -64 42.5 -136t218.5 -225t226 -243t50 -172q0 -90 -42 -165t-130 -167q100 -114 100 -244q0 -121 -80 -195.5 t-211 -74.5q-108 0 -183.5 58.5t-88.5 162.5h102q29 -131 174 -131q83 0 138 51.5t55 128.5q0 60 -41.5 128.5t-218 221t-228 245t-51.5 177.5zM158 573q0 -64 37 -132.5t162 -179t167 -152.5q140 129 140 258q0 73 -45 144t-330 323q-131 -126 -131 -261z" />
<glyph unicode="&#xa8;" horiz-adv-x="682" d="M70 1212q0 37 26.5 64t63.5 27q36 0 63 -27t27 -64q0 -36 -27 -63t-63 -27q-37 0 -63.5 27t-26.5 63zM432 1212q0 37 27 64t63 27q37 0 63.5 -27t26.5 -64q0 -36 -26.5 -63t-63.5 -27q-36 0 -63 27t-27 63z" />
<glyph unicode="&#xa9;" horiz-adv-x="1638" d="M55 727q0 315 224.5 539.5t539.5 224.5t539.5 -224.5t224.5 -539.5t-224.5 -539.5t-539.5 -224.5t-539.5 224.5t-224.5 539.5zM152 727q0 -275 196 -471.5t471 -196.5t471.5 196.5t196.5 471.5t-196.5 471.5t-471.5 196.5t-471 -196.5t-196 -471.5zM440 729 q0 178 108 297t281 119q211 0 322 -225l-96 -25q-72 166 -228 166q-122 0 -202 -87t-80 -229q0 -164 75 -264t197 -100q183 0 252 205l90 -33q-33 -121 -124.5 -191.5t-211.5 -70.5q-165 0 -274 124.5t-109 313.5z" />
<glyph unicode="&#xaa;" horiz-adv-x="575" d="M43 983q0 87 88.5 140.5t255.5 62.5v63q0 103 -119 103q-79 0 -192 -78v80q104 61 203 61q92 0 143 -42.5t51 -115.5v-303q0 -41 19 -41q3 0 81 58v-74q-94 -59 -131 -59q-47 0 -55 59q-88 -59 -172 -59q-72 0 -122 42t-50 103zM131 981q0 -36 29 -59t76 -23q72 0 151 66 v161q-120 0 -188 -39t-68 -106z" />
<glyph unicode="&#xab;" d="M39 473l387 459h123l-385 -459l385 -459h-123zM475 473l387 459h123l-385 -459l385 -459h-123z" />
<glyph unicode="&#xac;" horiz-adv-x="1352" d="M139 899v90h1073v-581h-90v491h-983z" />
<glyph unicode="&#xad;" horiz-adv-x="641" d="M78 414v96h485v-96h-485z" />
<glyph unicode="&#xae;" horiz-adv-x="1638" d="M55 727q0 315 224.5 539.5t539.5 224.5t539.5 -224.5t224.5 -539.5t-224.5 -539.5t-539.5 -224.5t-539.5 224.5t-224.5 539.5zM152 727q0 -275 196 -471.5t471 -196.5t471.5 196.5t196.5 471.5t-196.5 471.5t-471.5 196.5t-471 -196.5t-196 -471.5zM512 317v803h332 q127 0 199.5 -56.5t72.5 -156.5q0 -185 -219 -223q86 -52 124.5 -106t125.5 -261h-121q-107 235 -169 294t-200 59h-47v-353h-98zM610 750h133q139 0 197.5 33t58.5 116q0 81 -53.5 111t-187.5 30h-148v-290z" />
<glyph unicode="&#xaf;" d="M-12 1509v103h1048v-103h-1048z" />
<glyph unicode="&#xb0;" horiz-adv-x="819" d="M125 1130q0 118 83.5 201.5t201.5 83.5t202 -83.5t84 -201.5q0 -117 -84.5 -201.5t-201.5 -84.5q-118 0 -201.5 84.5t-83.5 201.5zM207 1128q0 -84 59.5 -143t143.5 -59t144 59.5t60 142.5q0 85 -60 145t-144 60t-143.5 -60t-59.5 -145z" />
<glyph unicode="&#xb1;" horiz-adv-x="1352" d="M139 0v90h1073v-90h-1073zM139 674v90h492v491h90v-491h491v-90h-491v-492h-90v492h-492z" />
<glyph unicode="&#xb2;" horiz-adv-x="641" d="M61 680q188 158 289 296.5t101 229.5q0 63 -50.5 105.5t-124.5 42.5q-49 0 -87.5 -18t-110.5 -74v84q99 69 205 69q107 0 180.5 -61t73.5 -150q0 -166 -297 -461h376v-63h-555z" />
<glyph unicode="&#xb3;" horiz-adv-x="641" d="M90 709v65q94 -43 195 -43q83 0 132.5 40.5t49.5 107.5q0 151 -215 151v64q95 0 150 35.5t55 95.5q0 55 -50 92t-126 37q-89 0 -183 -60v70q75 51 185 51q113 0 185.5 -52.5t72.5 -133.5q0 -119 -133 -162v-4q143 -42 143 -182q0 -90 -73.5 -150.5t-184.5 -60.5 q-108 0 -203 39z" />
<glyph unicode="&#xb4;" horiz-adv-x="682" d="M313 1067l213 319h166l-311 -319h-68z" />
<glyph unicode="&#xb5;" horiz-adv-x="1139" d="M207 -362v1282h98v-478q0 -370 270 -370q271 0 271 342v506h98v-920h-98v102q-105 -120 -273 -120q-160 0 -268 120v-464h-98z" />
<glyph unicode="&#xb6;" horiz-adv-x="1331" d="M100 978q0 194 132.5 306.5t347.5 112.5h692v-139h-197v-1735h-127v1735h-266v-1735h-131v1033h-25q-186 0 -302 113q-124 121 -124 309z" />
<glyph unicode="&#xb7;" horiz-adv-x="683" d="M548 700q0 37 26 63t63 26q36 0 62.5 -26t26.5 -63q0 -36 -26.5 -62.5t-62.5 -26.5q-37 0 -63 26.5t-26 62.5z" />
<glyph unicode="&#xb8;" horiz-adv-x="682" d="M217 -348l10 65q39 -3 68 -3q133 0 133 79q0 77 -127 80l43 143h62l-25 -88q127 -22 127 -129q0 -73 -55.5 -115.5t-146.5 -42.5q-43 0 -89 11z" />
<glyph unicode="&#xb9;" horiz-adv-x="641" d="M276 680v727h86v-727h-86z" />
<glyph unicode="&#xba;" horiz-adv-x="725" d="M51 1126q0 126 87.5 207.5t223.5 81.5q131 0 221.5 -84.5t90.5 -204.5q0 -129 -86 -208.5t-226 -79.5q-134 0 -222.5 82t-88.5 206zM143 1126q0 -98 61 -159.5t158 -61.5t158.5 62.5t61.5 158.5q0 95 -63 158.5t-157 63.5q-95 0 -157 -62.5t-62 -159.5z" />
<glyph unicode="&#xbb;" d="M39 14l385 459l-385 459h123l387 -459l-387 -459h-123zM475 14l385 459l-385 459h123l387 -459l-387 -459h-123z" />
<glyph unicode="&#xbc;" horiz-adv-x="1706" d="M128 -55l1077 1470h80l-1077 -1470h-80zM288 680v727h86v-727h-86zM844 274v27l420 436h41v-405h114v-58h-114v-274h-86v274h-375zM961 332h258v268z" />
<glyph unicode="&#xbd;" horiz-adv-x="1706" d="M128 -55l1077 1470h80l-1077 -1470h-80zM288 680v727h86v-727h-86zM973 0q188 158 289 296.5t101 229.5q0 63 -50.5 105.5t-124.5 42.5q-49 0 -87.5 -18t-110.5 -74v84q99 69 205 69q107 0 180.5 -61t73.5 -150q0 -166 -297 -461h376v-63h-555z" />
<glyph unicode="&#xbe;" horiz-adv-x="1706" d="M134 709v65q94 -43 195 -43q83 0 132.5 40.5t49.5 107.5q0 151 -215 151v64q95 0 150 35.5t55 95.5q0 55 -50 92t-126 37q-89 0 -183 -60v70q75 51 185 51q113 0 185.5 -52.5t72.5 -133.5q0 -119 -133 -162v-4q143 -42 143 -182q0 -90 -73.5 -150.5t-184.5 -60.5 q-108 0 -203 39zM232 -55l1077 1470h80l-1077 -1470h-80zM952 274v27l420 436h41v-405h114v-58h-114v-274h-86v274h-375zM1069 332h258v268z" />
<glyph unicode="&#xbf;" horiz-adv-x="575" d="M45 -180q0 72 26.5 153.5t113.5 205.5t105.5 175t18.5 95q0 62 -39 129l37 28q80 -91 80 -188q0 -46 -18.5 -102.5t-97 -182t-100 -195t-21.5 -128.5q0 -81 44.5 -137t108.5 -56q98 0 164 109h20l-47 -160q-71 -37 -139 -37q-114 0 -185 80t-71 211zM231 745v199h134 v-199h-134z" />
<glyph unicode="&#xc0;" horiz-adv-x="1366" d="M8 0l645 1407h60l645 -1407h-113l-221 483h-682l-221 -483h-113zM383 573h600l-301 658zM400 1833h166l213 -319h-68z" />
<glyph unicode="&#xc1;" horiz-adv-x="1366" d="M8 0l645 1407h60l645 -1407h-113l-221 483h-682l-221 -483h-113zM383 573h600l-301 658zM594 1514l213 319h166l-311 -319h-68z" />
<glyph unicode="&#xc2;" horiz-adv-x="1366" d="M8 0l645 1407h60l645 -1407h-113l-221 483h-682l-221 -483h-113zM383 573h600l-301 658zM401 1496l222 335h125l217 -335h-78l-203 223l-205 -223h-78z" />
<glyph unicode="&#xc3;" horiz-adv-x="1366" d="M8 0l645 1407h60l645 -1407h-113l-221 483h-682l-221 -483h-113zM348 1569q0 87 44.5 141t123.5 54q66 0 185 -50t163 -50q79 0 92 100h62v-15q0 -74 -44 -125q-50 -57 -124 -57q-50 0 -177.5 50.5t-172.5 50.5q-74 0 -86 -99h-66zM383 573h600l-301 658z" />
<glyph unicode="&#xc4;" horiz-adv-x="1366" d="M8 0l645 1407h60l645 -1407h-113l-221 483h-682l-221 -483h-113zM383 573h600l-301 658zM412 1659q0 37 26.5 64t63.5 27q36 0 63 -27t27 -64q0 -36 -27 -63t-63 -27q-37 0 -63.5 27t-26.5 63zM774 1659q0 37 27 64t63 27q37 0 63.5 -27t26.5 -64q0 -36 -26.5 -63 t-63.5 -27q-36 0 -63 27t-27 63z" />
<glyph unicode="&#xc5;" horiz-adv-x="1366" d="M8 0l645 1407h60l645 -1407h-113l-221 483h-682l-221 -483h-113zM383 573h600l-301 658zM504 1662q0 74 52 125.5t126 51.5q73 0 124.5 -51.5t51.5 -125.5q0 -73 -51.5 -125.5t-124.5 -52.5t-125.5 52.5t-52.5 125.5zM559 1662q0 -50 36.5 -86t86.5 -36t85.5 36t35.5 86 q0 51 -35.5 86t-85.5 35q-51 0 -87 -35t-36 -86z" />
<glyph unicode="&#xc6;" horiz-adv-x="1772" d="M-29 0l873 1397h831v-90h-657v-557h643v-91h-643v-569h676v-90h-785v659h-409l-410 -659h-119zM559 750h350v571z" />
<glyph unicode="&#xc7;" horiz-adv-x="1386" d="M100 696q0 307 217 513t517 206q236 0 491 -117v-118q-254 135 -498 135q-260 0 -435 -177t-175 -442q0 -268 176 -441t449 -173q228 0 497 143v-112q-248 -131 -495 -131q-34 0 -47 4l-17 -58q127 -22 127 -129q0 -73 -55.5 -115.5t-145.5 -42.5q-44 0 -90 11l11 65 q38 -3 67 -3q133 0 133 79q0 77 -127 80l35 117q-290 40 -462.5 238t-172.5 468z" />
<glyph unicode="&#xc8;" horiz-adv-x="1004" d="M164 0v1397h762v-90h-654v-559h637v-91h-637v-567h670v-90h-778zM319 1833h166l213 -319h-68z" />
<glyph unicode="&#xc9;" horiz-adv-x="1004" d="M164 0v1397h762v-90h-654v-559h637v-91h-637v-567h670v-90h-778zM475 1514l213 319h166l-311 -319h-68z" />
<glyph unicode="&#xca;" horiz-adv-x="1004" d="M164 0v1397h762v-90h-654v-559h637v-91h-637v-567h670v-90h-778zM221 1496l222 335h125l217 -335h-78l-203 223l-205 -223h-78z" />
<glyph unicode="&#xcb;" horiz-adv-x="1004" d="M164 0v1397h762v-90h-654v-559h637v-91h-637v-567h670v-90h-778zM232 1659q0 37 26.5 64t63.5 27q36 0 63 -27t27 -64q0 -36 -27 -63t-63 -27q-37 0 -63.5 27t-26.5 63zM594 1659q0 37 27 64t63 27q37 0 63.5 -27t26.5 -64q0 -36 -26.5 -63t-63.5 -27q-36 0 -63 27 t-27 63z" />
<glyph unicode="&#xcc;" horiz-adv-x="426" d="M-51 1833h166l213 -319h-68zM160 0v1397h108v-1397h-108z" />
<glyph unicode="&#xcd;" horiz-adv-x="426" d="M160 0v1397h108v-1397h-108zM186 1514l213 319h166l-311 -319h-68z" />
<glyph unicode="&#xce;" horiz-adv-x="426" d="M-68 1496l222 335h125l217 -335h-78l-203 223l-205 -223h-78zM160 0v1397h108v-1397h-108z" />
<glyph unicode="&#xcf;" horiz-adv-x="426" d="M-57 1659q0 37 26.5 64t63.5 27q36 0 63 -27t27 -64q0 -36 -27 -63t-63 -27q-37 0 -63.5 27t-26.5 63zM160 0v1397h108v-1397h-108zM305 1659q0 37 27 64t63 27q37 0 63.5 -27t26.5 -64q0 -36 -26.5 -63t-63.5 -27q-36 0 -63 27t-27 63z" />
<glyph unicode="&#xd0;" horiz-adv-x="1516" d="M-47 655v90h209v652h489q371 0 566.5 -195t195.5 -504q0 -303 -193.5 -500.5t-549.5 -197.5h-508v655h-209zM270 1307v-562h453v-90h-453v-565h394q271 0 451.5 166.5t180.5 441.5q0 269 -178 439t-461 170h-387z" />
<glyph unicode="&#xd1;" horiz-adv-x="1579" d="M160 0v1397h92l1059 -1221v1221h108v-1397h-90l-1061 1221v-1221h-108zM455 1569q0 87 44.5 141t123.5 54q66 0 185 -50t163 -50q79 0 92 100h62v-15q0 -74 -45 -125q-49 -57 -123 -57q-50 0 -177.5 50.5t-172.5 50.5q-74 0 -86 -99h-66z" />
<glyph unicode="&#xd2;" horiz-adv-x="1686" d="M104 698q0 300 214.5 508.5t523.5 208.5q310 0 525.5 -208.5t215.5 -508.5q0 -299 -215.5 -507.5t-525.5 -208.5q-309 0 -523.5 208.5t-214.5 507.5zM221 698q0 -259 181.5 -437.5t443.5 -178.5q261 0 440.5 178.5t179.5 437.5q0 260 -179.5 438.5t-440.5 178.5 q-262 0 -443.5 -178.5t-181.5 -438.5zM659 1833h166l213 -319h-68z" />
<glyph unicode="&#xd3;" horiz-adv-x="1686" d="M104 698q0 300 214.5 508.5t523.5 208.5q310 0 525.5 -208.5t215.5 -508.5q0 -299 -215.5 -507.5t-525.5 -208.5q-309 0 -523.5 208.5t-214.5 507.5zM221 698q0 -259 181.5 -437.5t443.5 -178.5q261 0 440.5 178.5t179.5 437.5q0 260 -179.5 438.5t-440.5 178.5 q-262 0 -443.5 -178.5t-181.5 -438.5zM815 1514l213 319h166l-311 -319h-68z" />
<glyph unicode="&#xd4;" horiz-adv-x="1686" d="M104 698q0 300 214.5 508.5t523.5 208.5q310 0 525.5 -208.5t215.5 -508.5q0 -299 -215.5 -507.5t-525.5 -208.5q-309 0 -523.5 208.5t-214.5 507.5zM221 698q0 -259 181.5 -437.5t443.5 -178.5q261 0 440.5 178.5t179.5 437.5q0 260 -179.5 438.5t-440.5 178.5 q-262 0 -443.5 -178.5t-181.5 -438.5zM561 1496l222 335h125l217 -335h-78l-203 223l-205 -223h-78z" />
<glyph unicode="&#xd5;" horiz-adv-x="1686" d="M104 698q0 300 214.5 508.5t523.5 208.5q310 0 525.5 -208.5t215.5 -508.5q0 -299 -215.5 -507.5t-525.5 -208.5q-309 0 -523.5 208.5t-214.5 507.5zM221 698q0 -259 181.5 -437.5t443.5 -178.5q261 0 440.5 178.5t179.5 437.5q0 260 -179.5 438.5t-440.5 178.5 q-262 0 -443.5 -178.5t-181.5 -438.5zM508 1569q0 87 44.5 141t123.5 54q66 0 185 -50t163 -50q79 0 92 100h62v-15q0 -74 -44 -125q-50 -57 -124 -57q-50 0 -177.5 50.5t-172.5 50.5q-74 0 -86 -99h-66z" />
<glyph unicode="&#xd6;" horiz-adv-x="1686" d="M104 698q0 300 214.5 508.5t523.5 208.5q310 0 525.5 -208.5t215.5 -508.5q0 -299 -215.5 -507.5t-525.5 -208.5q-309 0 -523.5 208.5t-214.5 507.5zM221 698q0 -259 181.5 -437.5t443.5 -178.5q261 0 440.5 178.5t179.5 437.5q0 260 -179.5 438.5t-440.5 178.5 q-262 0 -443.5 -178.5t-181.5 -438.5zM572 1659q0 37 26.5 64t63.5 27q36 0 63 -27t27 -64q0 -36 -27 -63t-63 -27q-37 0 -63.5 27t-26.5 63zM934 1659q0 37 27 64t63 27q37 0 63.5 -27t26.5 -64q0 -36 -26.5 -63t-63.5 -27q-36 0 -63 27t-27 63z" />
<glyph unicode="&#xd7;" horiz-adv-x="1352" d="M264 375l346 346l-346 346l66 66l346 -347l346 347l65 -66l-346 -346l346 -346l-65 -66l-346 346l-346 -346z" />
<glyph unicode="&#xd8;" horiz-adv-x="1686" d="M104 698q0 300 214.5 508.5t523.5 208.5q255 0 461 -151l129 143l75 -51l-137 -152q213 -209 213 -506q0 -299 -215.5 -507.5t-525.5 -208.5q-237 0 -443 139l-129 -144l-77 60l131 145q-220 218 -220 516zM221 698q0 -253 178 -434l832 922q-160 129 -385 129 q-262 0 -443.5 -178.5t-181.5 -438.5zM471 201q165 -119 375 -119q261 0 440.5 178.5t179.5 437.5q0 237 -166 426z" />
<glyph unicode="&#xd9;" horiz-adv-x="1430" d="M131 610v787h109v-783q0 -250 132.5 -391t342.5 -141q212 0 344.5 142.5t132.5 404.5v768h108v-762q0 -313 -163 -483t-422 -170q-258 0 -421 168t-163 460zM532 1833h166l213 -319h-68z" />
<glyph unicode="&#xda;" horiz-adv-x="1430" d="M131 610v787h109v-783q0 -250 132.5 -391t342.5 -141q212 0 344.5 142.5t132.5 404.5v768h108v-762q0 -313 -163 -483t-422 -170q-258 0 -421 168t-163 460zM688 1514l213 319h166l-311 -319h-68z" />
<glyph unicode="&#xdb;" horiz-adv-x="1430" d="M131 610v787h109v-783q0 -250 132.5 -391t342.5 -141q212 0 344.5 142.5t132.5 404.5v768h108v-762q0 -313 -163 -483t-422 -170q-258 0 -421 168t-163 460zM434 1496l222 335h125l217 -335h-78l-203 223l-205 -223h-78z" />
<glyph unicode="&#xdc;" horiz-adv-x="1430" d="M131 610v787h109v-783q0 -250 132.5 -391t342.5 -141q212 0 344.5 142.5t132.5 404.5v768h108v-762q0 -313 -163 -483t-422 -170q-258 0 -421 168t-163 460zM445 1659q0 37 26.5 64t63.5 27q36 0 63 -27t27 -64q0 -36 -27 -63t-63 -27q-37 0 -63.5 27t-26.5 63zM807 1659 q0 37 27 64t63 27q37 0 63.5 -27t26.5 -64q0 -36 -26.5 -63t-63.5 -27q-36 0 -63 27t-27 63z" />
<glyph unicode="&#xdd;" horiz-adv-x="1194" d="M0 1397h131l467 -553l465 553h131l-543 -647v-750h-108v750zM569 1514l213 319h166l-311 -319h-68z" />
<glyph unicode="&#xde;" horiz-adv-x="1044" d="M160 0v1397h108v-326h277q221 0 338.5 -98.5t117.5 -270.5q0 -173 -118.5 -273.5t-347.5 -100.5h-267v-328h-108zM268 418h260q175 0 266 73.5t91 208.5q0 130 -89 205.5t-255 75.5h-273v-563z" />
<glyph unicode="&#xdf;" d="M127 997q0 199 99.5 308.5t279.5 109.5q162 0 267.5 -95.5t105.5 -242.5q0 -89 -47 -176.5t-138 -124.5q246 -95 246 -370q0 -186 -104 -305t-263 -119q-60 0 -127 18v102q68 -24 123 -24q121 0 194 89t73 236q0 144 -72 230t-205 96v92h14q88 0 143 68q58 74 58 182 q0 120 -73 191t-195 71q-281 0 -281 -354v-979h-98v997z" />
<glyph unicode="&#xe0;" horiz-adv-x="874" d="M74 215q0 150 139 236.5t397 99.5v117q0 188 -204 188q-130 0 -281 -117v101q156 98 297 98q125 0 206 -61.5t81 -178.5v-573q0 -47 22 -47q28 0 131 82v-82q-127 -96 -186 -96q-34 0 -47 22.5t-19 91.5q-145 -114 -288 -114q-104 0 -176 68t-72 165zM172 215 q0 -64 52 -108t130 -44q126 0 256 119v287q-16 1 -32 1q-168 0 -282 -68q-124 -73 -124 -187zM178 1386h166l213 -319h-68z" />
<glyph unicode="&#xe1;" horiz-adv-x="874" d="M74 215q0 150 139 236.5t397 99.5v117q0 188 -204 188q-130 0 -281 -117v101q156 98 297 98q125 0 206 -61.5t81 -178.5v-573q0 -47 22 -47q28 0 131 82v-82q-127 -96 -186 -96q-34 0 -47 22.5t-19 91.5q-145 -114 -288 -114q-104 0 -176 68t-72 165zM172 215 q0 -64 52 -108t130 -44q126 0 256 119v287q-16 1 -32 1q-168 0 -282 -68q-124 -73 -124 -187zM397 1067l213 319h166l-311 -319h-68z" />
<glyph unicode="&#xe2;" horiz-adv-x="874" d="M74 215q0 150 139 236.5t397 99.5v117q0 188 -204 188q-130 0 -281 -117v101q156 98 297 98q125 0 206 -61.5t81 -178.5v-573q0 -47 22 -47q28 0 131 82v-82q-127 -96 -186 -96q-34 0 -47 22.5t-19 91.5q-145 -114 -288 -114q-104 0 -176 68t-72 165zM156 1049l222 335 h125l217 -335h-78l-203 223l-205 -223h-78zM172 215q0 -64 52 -108t130 -44q126 0 256 119v287q-16 1 -32 1q-168 0 -282 -68q-124 -73 -124 -187z" />
<glyph unicode="&#xe3;" horiz-adv-x="874" d="M74 215q0 150 139 236.5t397 99.5v117q0 188 -204 188q-130 0 -281 -117v101q156 98 297 98q125 0 206 -61.5t81 -178.5v-573q0 -47 22 -47q28 0 131 82v-82q-127 -96 -186 -96q-34 0 -47 22.5t-19 91.5q-145 -114 -288 -114q-104 0 -176 68t-72 165zM102 1122 q0 87 44.5 141t123.5 54q66 0 185 -50t163 -50q79 0 92 100h62v-15q0 -74 -44 -126q-50 -56 -124 -56q-50 0 -177.5 50.5t-172.5 50.5q-74 0 -86 -99h-66zM172 215q0 -64 52 -108t130 -44q126 0 256 119v287q-16 1 -32 1q-168 0 -282 -68q-124 -73 -124 -187z" />
<glyph unicode="&#xe4;" horiz-adv-x="874" d="M74 215q0 150 139 236.5t397 99.5v117q0 188 -204 188q-130 0 -281 -117v101q156 98 297 98q125 0 206 -61.5t81 -178.5v-573q0 -47 22 -47q28 0 131 82v-82q-127 -96 -186 -96q-34 0 -47 22.5t-19 91.5q-145 -114 -288 -114q-104 0 -176 68t-72 165zM167 1212 q0 37 26.5 64t63.5 27q36 0 63 -27t27 -64q0 -36 -27 -63t-63 -27q-37 0 -63.5 27t-26.5 63zM172 215q0 -64 52 -108t130 -44q126 0 256 119v287q-16 1 -32 1q-168 0 -282 -68q-124 -73 -124 -187zM529 1212q0 37 27 64t63 27q37 0 63.5 -27t26.5 -64q0 -36 -26.5 -63 t-63.5 -27q-36 0 -63 27t-27 63z" />
<glyph unicode="&#xe5;" horiz-adv-x="874" d="M74 215q0 150 139 236.5t397 99.5v117q0 188 -204 188q-130 0 -281 -117v101q156 98 297 98q125 0 206 -61.5t81 -178.5v-573q0 -47 22 -47q28 0 131 82v-82q-127 -96 -186 -96q-34 0 -47 22.5t-19 91.5q-145 -114 -288 -114q-104 0 -176 68t-72 165zM172 215 q0 -64 52 -108t130 -44q126 0 256 119v287q-16 1 -32 1q-168 0 -282 -68q-124 -73 -124 -187zM260 1214q0 74 52 125.5t126 51.5q73 0 124.5 -51.5t51.5 -125.5q0 -73 -51.5 -125.5t-124.5 -52.5t-125.5 52.5t-52.5 125.5zM315 1214q0 -50 36.5 -86t86.5 -36t85.5 36 t35.5 86q0 51 -35.5 86t-85.5 35q-51 0 -87 -35t-36 -86z" />
<glyph unicode="&#xe6;" horiz-adv-x="1366" d="M68 219q0 129 113.5 206.5t418.5 152.5v67q0 203 -184 203q-145 0 -305 -115v103q149 102 319 102q169 0 250 -141q106 141 256 141q160 0 257 -122.5t97 -317.5h-592v-121q0 -143 74.5 -221t190.5 -78q162 0 327 121v-113q-168 -104 -338 -104q-172 0 -293 143 q-196 -143 -346 -143q-105 0 -175 67.5t-70 169.5zM162 215q0 -64 49 -108t123 -44q110 0 266 119v316q-438 -106 -438 -283zM698 578h484q-6 122 -78 193t-170 71q-97 0 -164 -72t-72 -192z" />
<glyph unicode="&#xe7;" horiz-adv-x="854" d="M86 446q0 217 125.5 354.5t320.5 137.5q107 0 244 -45v-109q-132 58 -239 58q-154 0 -250.5 -107t-96.5 -278q0 -174 96.5 -276.5t258.5 -102.5q118 0 248 53v-102q-138 -47 -256 -47q-26 0 -37 4l-17 -58q127 -22 127 -129q0 -73 -55.5 -115.5t-145.5 -42.5 q-44 0 -90 11l11 65q38 -3 67 -3q133 0 133 79q0 77 -127 80l35 117q-166 31 -259 154.5t-93 301.5z" />
<glyph unicode="&#xe8;" horiz-adv-x="981" d="M82 471q0 202 120 334.5t302 132.5q171 0 289 -119.5t118 -324.5h-725q-3 -24 -3 -48q0 -154 110 -261t260 -107q175 0 342 137v-111q-158 -122 -354 -122q-199 0 -329 138t-130 351zM199 573h596q-52 269 -291 269q-113 0 -195.5 -70.5t-109.5 -198.5zM307 1386h166 l213 -319h-68z" />
<glyph unicode="&#xe9;" horiz-adv-x="981" d="M82 471q0 202 120 334.5t302 132.5q171 0 289 -119.5t118 -324.5h-725q-3 -24 -3 -48q0 -154 110 -261t260 -107q175 0 342 137v-111q-158 -122 -354 -122q-199 0 -329 138t-130 351zM199 573h596q-52 269 -291 269q-113 0 -195.5 -70.5t-109.5 -198.5zM463 1067l213 319 h166l-311 -319h-68z" />
<glyph unicode="&#xea;" horiz-adv-x="981" d="M82 471q0 202 120 334.5t302 132.5q171 0 289 -119.5t118 -324.5h-725q-3 -24 -3 -48q0 -154 110 -261t260 -107q175 0 342 137v-111q-158 -122 -354 -122q-199 0 -329 138t-130 351zM199 573h596q-52 269 -291 269q-113 0 -195.5 -70.5t-109.5 -198.5zM209 1049l222 335 h125l217 -335h-78l-203 223l-205 -223h-78z" />
<glyph unicode="&#xeb;" horiz-adv-x="981" d="M82 471q0 202 120 334.5t302 132.5q171 0 289 -119.5t118 -324.5h-725q-3 -24 -3 -48q0 -154 110 -261t260 -107q175 0 342 137v-111q-158 -122 -354 -122q-199 0 -329 138t-130 351zM199 573h596q-52 269 -291 269q-113 0 -195.5 -70.5t-109.5 -198.5zM220 1212 q0 37 26.5 64t63.5 27q36 0 63 -27t27 -64q0 -36 -27 -63t-63 -27q-37 0 -63.5 27t-26.5 63zM582 1212q0 37 27 64t63 27q37 0 63.5 -27t26.5 -64q0 -36 -26.5 -63t-63.5 -27q-36 0 -63 27t-27 63z" />
<glyph unicode="&#xec;" horiz-adv-x="385" d="M-72 1386h166l213 -319h-68zM143 0v920h99v-920h-99z" />
<glyph unicode="&#xed;" horiz-adv-x="385" d="M143 0v920h99v-920h-99zM166 1067l213 319h166l-311 -319h-68z" />
<glyph unicode="&#xee;" horiz-adv-x="385" d="M-89 1049l222 335h125l217 -335h-78l-203 223l-205 -223h-78zM143 0v920h99v-920h-99z" />
<glyph unicode="&#xef;" horiz-adv-x="385" d="M-78 1212q0 37 26.5 64t63.5 27q36 0 63 -27t27 -64q0 -36 -27 -63t-63 -27q-37 0 -63.5 27t-26.5 63zM143 0v920h99v-920h-99zM284 1212q0 37 27 64t63 27q37 0 63.5 -27t26.5 -64q0 -36 -26.5 -63t-63.5 -27q-36 0 -63 27t-27 63z" />
<glyph unicode="&#xf0;" horiz-adv-x="1145" d="M78 453q0 206 143 345.5t354 139.5q228 0 367 -168l4 4q-76 235 -289 404l-292 -138l-31 68l256 119q-76 54 -184 96l38 74q134 -50 242 -125l272 125l31 -68l-237 -108q321 -274 321 -709q0 -242 -138 -386t-370 -144q-206 0 -346.5 136t-140.5 335zM172 453 q0 -168 115 -279t291 -111t283.5 110.5t107.5 291.5q0 173 -110 282t-286 109q-169 0 -285 -116.5t-116 -286.5z" />
<glyph unicode="&#xf1;" horiz-adv-x="1004" d="M127 0v920h98v-160h4q115 178 303 178q156 0 249 -100t93 -277v-561h-98v524q0 318 -250 318q-183 0 -301 -197v-645h-98zM168 1122q0 87 44.5 141t123.5 54q66 0 185 -50t163 -50q79 0 92 100h62v-15q0 -74 -44 -126q-50 -56 -124 -56q-50 0 -177.5 50.5t-172.5 50.5 q-74 0 -86 -99h-66z" />
<glyph unicode="&#xf2;" horiz-adv-x="1110" d="M86 459q0 205 134.5 342t334.5 137t333.5 -137t133.5 -342q0 -204 -133.5 -340.5t-333.5 -136.5t-334.5 136.5t-134.5 340.5zM190 459q0 -164 104.5 -272.5t260.5 -108.5q155 0 259 108.5t104 272.5q0 163 -104.5 273t-258.5 110q-156 0 -260.5 -109t-104.5 -274z M373 1386h166l213 -319h-68z" />
<glyph unicode="&#xf3;" horiz-adv-x="1110" d="M86 459q0 205 134.5 342t334.5 137t333.5 -137t133.5 -342q0 -204 -133.5 -340.5t-333.5 -136.5t-334.5 136.5t-134.5 340.5zM190 459q0 -164 104.5 -272.5t260.5 -108.5q155 0 259 108.5t104 272.5q0 163 -104.5 273t-258.5 110q-156 0 -260.5 -109t-104.5 -274z M528 1067l213 319h166l-311 -319h-68z" />
<glyph unicode="&#xf4;" horiz-adv-x="1110" d="M86 459q0 205 134.5 342t334.5 137t333.5 -137t133.5 -342q0 -204 -133.5 -340.5t-333.5 -136.5t-334.5 136.5t-134.5 340.5zM190 459q0 -164 104.5 -272.5t260.5 -108.5q155 0 259 108.5t104 272.5q0 163 -104.5 273t-258.5 110q-156 0 -260.5 -109t-104.5 -274z M274 1049l222 335h125l217 -335h-78l-203 223l-205 -223h-78z" />
<glyph unicode="&#xf5;" horiz-adv-x="1110" d="M86 459q0 205 134.5 342t334.5 137t333.5 -137t133.5 -342q0 -204 -133.5 -340.5t-333.5 -136.5t-334.5 136.5t-134.5 340.5zM190 459q0 -164 104.5 -272.5t260.5 -108.5q155 0 259 108.5t104 272.5q0 163 -104.5 273t-258.5 110q-156 0 -260.5 -109t-104.5 -274z M221 1122q0 87 44.5 141t123.5 54q66 0 185 -50t163 -50q79 0 92 100h62v-15q0 -74 -45 -126q-49 -56 -123 -56q-50 0 -177.5 50.5t-172.5 50.5q-74 0 -86 -99h-66z" />
<glyph unicode="&#xf6;" horiz-adv-x="1110" d="M86 459q0 205 134.5 342t334.5 137t333.5 -137t133.5 -342q0 -204 -133.5 -340.5t-333.5 -136.5t-334.5 136.5t-134.5 340.5zM190 459q0 -164 104.5 -272.5t260.5 -108.5q155 0 259 108.5t104 272.5q0 163 -104.5 273t-258.5 110q-156 0 -260.5 -109t-104.5 -274z M285 1212q0 37 26.5 64t63.5 27q36 0 63 -27t27 -64q0 -36 -27 -63t-63 -27q-37 0 -63.5 27t-26.5 63zM647 1212q0 37 27 64t63 27q37 0 63.5 -27t26.5 -64q0 -36 -26.5 -63t-63.5 -27q-36 0 -63 27t-27 63z" />
<glyph unicode="&#xf7;" horiz-adv-x="1352" d="M139 674v90h1073v-90h-1073zM596 379q0 34 23 57t57 23q33 0 56.5 -23t23.5 -57t-23.5 -57t-56.5 -23q-34 0 -57 23t-23 57zM596 1059q0 33 23 56.5t57 23.5q33 0 56.5 -23.5t23.5 -56.5q0 -34 -23.5 -57t-56.5 -23q-34 0 -57 23t-23 57z" />
<glyph unicode="&#xf8;" horiz-adv-x="1110" d="M86 0l119 135q-119 130 -119 324q0 205 134.5 342t334.5 137q160 0 281 -90l108 123l64 -51l-111 -127q125 -140 125 -334q0 -204 -133.5 -340.5t-333.5 -136.5q-159 0 -285 92l-116 -135zM190 459q0 -141 82 -248l496 561q-90 70 -213 70q-156 0 -260.5 -109 t-104.5 -274zM338 150q100 -72 217 -72q155 0 259 108.5t104 272.5q0 158 -91 254z" />
<glyph unicode="&#xf9;" horiz-adv-x="1004" d="M127 350v570h98v-568q0 -128 70 -201t182 -73q96 0 163.5 44t135.5 152v646h98v-920h-98v152h-4q-64 -92 -131.5 -131t-171.5 -39q-148 0 -245 96t-97 272zM319 1386h166l213 -319h-68z" />
<glyph unicode="&#xfa;" horiz-adv-x="1004" d="M127 350v570h98v-568q0 -128 70 -201t182 -73q96 0 163.5 44t135.5 152v646h98v-920h-98v152h-4q-64 -92 -131.5 -131t-171.5 -39q-148 0 -245 96t-97 272zM475 1067l213 319h166l-311 -319h-68z" />
<glyph unicode="&#xfb;" horiz-adv-x="1004" d="M127 350v570h98v-568q0 -128 70 -201t182 -73q96 0 163.5 44t135.5 152v646h98v-920h-98v152h-4q-64 -92 -131.5 -131t-171.5 -39q-148 0 -245 96t-97 272zM221 1049l222 335h125l217 -335h-78l-203 223l-205 -223h-78z" />
<glyph unicode="&#xfc;" horiz-adv-x="1004" d="M127 350v570h98v-568q0 -128 70 -201t182 -73q96 0 163.5 44t135.5 152v646h98v-920h-98v152h-4q-64 -92 -131.5 -131t-171.5 -39q-148 0 -245 96t-97 272zM237 1212q0 37 26.5 64t63.5 27q36 0 63 -27t27 -64q0 -36 -27 -63t-63 -27q-37 0 -63.5 27t-26.5 63zM599 1212 q0 37 27 64t63 27q37 0 63.5 -27t26.5 -64q0 -36 -26.5 -63t-63.5 -27q-36 0 -63 27t-27 63z" />
<glyph unicode="&#xfd;" horiz-adv-x="854" d="M12 920h103l334 -644l317 644h100l-688 -1391h-100l321 649zM390 1067l213 319h166l-311 -319h-68z" />
<glyph unicode="&#xfe;" horiz-adv-x="1044" d="M129 -471v1868h98v-529q139 70 277 70q196 0 325 -135t129 -340q0 -202 -133 -341.5t-325 -139.5q-133 0 -273 69v-522h-98zM227 774v-627q125 -69 254 -69q165 0 267 104t102 273q0 168 -108 277.5t-273 109.5q-118 0 -242 -68z" />
<glyph unicode="&#xff;" horiz-adv-x="854" d="M12 920h103l334 -644l317 644h100l-688 -1391h-100l321 649zM167 1212q0 37 26.5 64t63.5 27q36 0 63 -27t27 -64q0 -36 -27 -63t-63 -27q-37 0 -63.5 27t-26.5 63zM529 1212q0 37 27 64t63 27q37 0 63.5 -27t26.5 -64q0 -36 -26.5 -63t-63.5 -27q-36 0 -63 27t-27 63z " />
<glyph unicode="&#x152;" horiz-adv-x="1835" d="M84 696q0 291 203 496t544 205h912v-90h-660v-562h646v-90h-646v-565h674v-90h-921q-348 0 -550 205t-202 491zM201 696q0 -254 176.5 -430t480.5 -176h117v1217h-121q-306 0 -479.5 -178.5t-173.5 -432.5z" />
<glyph unicode="&#x153;" horiz-adv-x="1706" d="M84 459q0 211 129.5 345t333.5 134q238 0 383 -195q46 91 133.5 143t181.5 52q165 0 276 -124q104 -115 104 -292q0 -13 -1 -26h-639q-1 -17 -1 -33q0 -180 71 -278q77 -107 221 -107q174 0 328 137v-113q-151 -120 -340 -120q-238 0 -334 215q-162 -215 -393 -215 q-197 0 -325 131t-128 346zM188 463q0 -167 101 -276t254 -109q151 0 244.5 110t93.5 289q0 170 -88.5 267.5t-243.5 97.5q-161 0 -261 -104.5t-100 -274.5zM989 573h520q-10 129 -81.5 199t-180.5 70q-102 0 -178.5 -73t-79.5 -196z" />
<glyph unicode="&#x178;" horiz-adv-x="1194" d="M0 1397h131l467 -553l465 553h131l-543 -647v-750h-108v750zM326 1659q0 37 26.5 64t63.5 27q36 0 63 -27t27 -64q0 -36 -27 -63t-63 -27q-37 0 -63.5 27t-26.5 63zM688 1659q0 37 27 64t63 27q37 0 63.5 -27t26.5 -64q0 -36 -26.5 -63t-63.5 -27q-36 0 -63 27t-27 63z " />
<glyph unicode="&#x2c6;" horiz-adv-x="682" d="M59 1049l222 335h125l217 -335h-78l-203 223l-205 -223h-78z" />
<glyph unicode="&#x2dc;" horiz-adv-x="682" d="M6 1122q0 87 44.5 141t123.5 54q66 0 185 -50t163 -50q79 0 92 100h62v-15q0 -74 -45 -126q-49 -56 -123 -56q-50 0 -177.5 50.5t-172.5 50.5q-74 0 -86 -99h-66z" />
<glyph unicode="&#x2013;" d="M-12 479v66h1048v-66h-1048z" />
<glyph unicode="&#x2014;" horiz-adv-x="2048" d="M-12 479v66h2072v-66h-2072z" />
<glyph unicode="&#x2018;" horiz-adv-x="362" d="M115 963v155q0 182 133 283v-72q-43 -60 -43 -168h43v-198h-133z" />
<glyph unicode="&#x2019;" horiz-adv-x="362" d="M115 963v71q43 61 43 168h-43v199h133v-156q0 -182 -133 -282z" />
<glyph unicode="&#x201a;" horiz-adv-x="362" d="M115 0v199h133v-156q0 -182 -133 -283v72q43 60 43 168h-43z" />
<glyph unicode="&#x201c;" horiz-adv-x="811" d="M115 963v155q0 182 133 283v-72q-43 -60 -43 -168h43v-198h-133zM563 963v155q0 182 133 283v-72q-43 -60 -43 -168h43v-198h-133z" />
<glyph unicode="&#x201d;" horiz-adv-x="811" d="M115 963v71q43 61 43 168h-43v199h133v-156q0 -182 -133 -282zM563 963v71q43 61 43 168h-43v199h133v-156q0 -182 -133 -282z" />
<glyph unicode="&#x201e;" horiz-adv-x="811" d="M119 0v199h133v-156q0 -182 -133 -283v72q43 60 43 168h-43zM559 0v199h133v-156q0 -182 -133 -283v72q43 60 43 168h-43z" />
<glyph unicode="&#x2022;" d="M262 698q0 103 74 176.5t176 73.5t176 -73.5t74 -176.5q0 -102 -74 -175.5t-176 -73.5t-176 73.5t-74 175.5z" />
<glyph unicode="&#x2026;" horiz-adv-x="2048" d="M274 0v199h134v-199h-134zM956 0v199h134v-199h-134zM1638 0v199h134v-199h-134z" />
<glyph unicode="&#x2039;" horiz-adv-x="575" d="M33 473l387 459h123l-385 -459l385 -459h-123z" />
<glyph unicode="&#x203a;" horiz-adv-x="575" d="M33 14l385 459l-385 459h123l387 -459l-387 -459h-123z" />
<glyph unicode="&#x20ac;" horiz-adv-x="1145" d="M33 532l18 99h125q-2 27 -2 61t2 70h-143l18 98h133q41 259 186.5 407t358.5 148q174 0 367 -102l-21 -105q-184 105 -342 105q-166 0 -281.5 -121t-150.5 -332h705l-19 -98h-696q-3 -30 -3 -61q0 -29 3 -70h674l-19 -99h-645q30 -214 145.5 -331t276.5 -117 q157 0 360 139v-112q-184 -129 -364 -129q-193 0 -343 133.5t-192 416.5h-151z" />
<glyph unicode="&#x2122;" horiz-adv-x="1925" d="M205 1313v84h635v-84h-265v-729h-104v729h-266zM934 584v813h153l206 -647l212 647h156v-813h-92v729l-244 -729h-70l-229 729v-729h-92z" />
<glyph unicode="&#xe000;" horiz-adv-x="920" d="M0 920h920v-920h-920v920z" />
<glyph unicode="&#xfb01;" horiz-adv-x="981" d="M25 840v80h168v114q0 185 84.5 283t244.5 98q298 0 316 -258h-99q-17 176 -213 176q-123 0 -179 -71.5t-56 -227.5v-114h190v-80h-190v-840h-98v840h-168zM739 0v920h99v-920h-99z" />
<glyph unicode="&#xfb02;" horiz-adv-x="981" d="M27 840v80h170v159q0 158 87.5 247t221.5 89q69 0 137 -31v-96q-89 31 -145 31q-97 0 -150 -62.5t-53 -173.5v-163h190v-80h-190v-840h-98v840h-170zM739 0v1397h99v-1397h-99z" />
<glyph unicode="&#xfb03;" horiz-adv-x="1369" d="M23 840v80h170v151q0 159 92.5 251.5t226.5 92.5q73 0 168 -39v-92q-99 35 -166 35q-223 0 -223 -285v-114h178v-80h-178v-840h-98v840h-170zM515 840v80h170v151q0 159 92.5 251.5t226.5 92.5q73 0 168 -39v-92q-99 35 -166 35q-223 0 -223 -285v-114h178v-80h-178v-840 h-98v840h-170zM1127 0v920h99v-920h-99zM1127 1229v168h99v-168h-99z" />
<glyph unicode="&#xfb04;" horiz-adv-x="1369" d="M23 840v80h170v151q0 159 92.5 251.5t226.5 92.5q73 0 168 -39v-92q-99 35 -166 35q-223 0 -223 -285v-114h178v-80h-178v-840h-98v840h-170zM515 840v80h170v151q0 159 92.5 251.5t226.5 92.5q73 0 168 -39v-92q-99 35 -166 35q-223 0 -223 -285v-114h178v-80h-178v-840 h-98v840h-170zM1127 0v1397h99v-1397h-99z" />
</font>
</defs>
</svg>
